<svg xmlns="http://www.w3.org/2000/svg" viewBox="0 0 512 512" role="img" aria-label="Tang Lab tiger mark">
<g fill="#32283a" fill-rule="evenodd">
<path d="M 417 347 L 409 365 L 396 377 L 357 377 L 334 370 L 356 392 L 399 392 L 417 371 Z"/>
<path d="M 179 282 L 181 318 L 188 353 L 344 494 L 314 425 L 195 316 Z"/>
<path d="M 285 99 L 275 110 L 291 111 L 365 141 L 376 147 L 396 193 L 455 272 L 410 273 L 437 301 L 423 326 L 400 335 L 396 333 L 373 340 L 326 323 L 339 312 L 375 312 L 338 301 L 331 302 L 278 334 L 356 354 L 389 341 L 395 337 L 411 337 L 418 344 L 466 273 L 403 190 L 381 140 Z"/>
<path d="M 240 142 L 193 204 L 199 272 L 244 310 L 249 311 L 326 284 L 256 281 L 225 258 L 220 208 Z"/>
<path d="M 173 159 L 148 176 L 71 242 L 141 203 L 205 161 Z"/>
<path d="M 170 186 L 101 240 L 47 362 L 105 322 L 153 226 Z"/>
<path d="M 197 59 L 166 18 L 166 91 L 206 132 L 237 105 Z M 185 53 L 200 65 L 202 83 L 231 95 L 242 104 L 210 128 L 185 99 Z"/>
<path d="M 328 198 L 365 212 L 399 246 L 364 218 L 349 218 L 362 245 Z M 351 205 L 359 208 L 360 216 L 353 219 L 348 214 Z"/>
<path d="M 303 389 L 320 407 L 351 423 L 375 419 L 356 443 L 329 442 L 309 418 Z"/>
</g>
<g fill="#c97932" fill-rule="evenodd">
<path d="M 168 228 L 126 306 L 95 376 L 304 482 L 246 436 L 163 374 L 154 333 L 152 315 L 162 261 L 169 234 Z"/>
<path d="M 259 124 L 252 154 L 269 150 L 296 159 L 294 225 L 350 254 L 319 220 L 320 167 L 328 167 L 359 176 L 376 187 L 377 186 L 364 157 Z"/>
<path d="M 185 53 L 185 99 L 212 125 L 210 128 L 243 103 L 242 104 L 231 95 L 202 83 L 200 65 Z"/>
<path d="M 352 205 L 360 208 L 361 216 L 354 220 L 348 215 Z"/>
</g></svg>
